Coordinates
version=1
nRows=6
nColumns=107
inDegrees=yes

Units are S.I. units (second, meters, Newtons, ...)
If the header above contains a line with 'inDegrees', this indicates whether rotational values are in degrees (yes) or radians (no).

endheader
time	sternoclavicular_r2	sternoclavicular_r3	unrotscap_r3	unrotscap_r2	acromioclavicular_r2	acromioclavicular_r3	acromioclavicular_r1	unrothum_r1	unrothum_r3	unrothum_r2	elv_angle	shoulder_elv	shoulder1_r2	shoulder_rot	elbow_flexion	pro_sup	deviation	flexion	proximal_distal_r1	proximal_distal_r3	cmc_flexion	cmc_abduction	mp_flexion	ip_flexion	mcp2_flexion	mcp2_abduction	pm2_flexion	md2_flexion	mcp3_flexion	mcp3_abduction	pm3_flexion	md3_flexion	mcp4_flexion	mcp4_abduction	pm4_flexion	md4_flexion	mcp5_flexion	mcp5_abduction	pm5_flexion	md5_flexion	bicpt_tx	bicpt_ty	bicpt_tz	bicpt2_tx	bicpt2_ty	bicpt2_tz	ptpt_tx	ptpt_ty	ptpt_tz	FCUpt_tx	FCUpt_ty	FCUpt_tz	EDCpt_tx	EDCpt_ty	EDCpt_tz	APLpt_tx	APLpt_ty	APLpt_tz	FPLpt_tx	FPLpt_ty	FPLpt_tz	FPLpt2_tx	FPLpt2_ty	FPLpt2_tz	PEC1pt2_tx	PEC1pt2_ty	PEC1pt2_tz	PEC1pt3_tx	PEC1pt3_ty	PEC1pt3_tz	PEC2pt2_tx	PEC2pt2_ty	PEC2pt2_tz	PEC2pt3_tx	PEC2pt3_ty	PEC2pt3_tz	PEC3pt2_tx	PEC3pt2_ty	PEC3pt2_tz	PEC3pt3_tx	PEC3pt3_ty	PEC3pt3_tz	DELT2pt2a_tx	DELT2pt2a_ty	DELT2pt2a_tz	DELT2pt2_tx	DELT2pt2_ty	DELT2pt2_tz	LAT1pt2_tx	LAT1pt2_ty	LAT1pt2_tz	LAT1pt3_tx	LAT1pt3_ty	LAT1pt3_tz	LAT2pt2_tx	LAT2pt2_ty	LAT2pt2_tz	LAT2pt3_tx	LAT2pt3_ty	LAT2pt3_tz	LAT3pt2_tx	LAT3pt2_ty	LAT3pt2_tz	LAT3pt3_tx	LAT3pt3_ty	LAT3pt3_tz
      1.33333333	     -0.31520637	      0.13350654	     -0.13350654	      0.31520637	     -0.06382288	      0.51579406	      0.23184588	     -0.23184588	     -0.51579406	      0.06382288	    101.20682093	     74.62791106	     -1.76639225	    -36.27866309	     31.62573231	     85.78764850	      0.36953931	     -0.24549473	      0.38974225	     -0.12274736	     40.07928672	    -23.54939998	      4.66052558	      4.14126553	     98.63450947	     12.03331176	     70.14048434	     71.27576959	     96.35664328	     -2.00120731	     75.82969638	     58.04947034	     89.92312259	    -13.59992535	     92.05588719	     45.28739187	     92.42725552	    -14.17933866	    100.64920759	      5.33248126	      0.00094608	     -0.03122479	     -0.00488386	      0.01426181	     -0.01879129	     -0.00111237	      0.00121126	     -0.06899873	     -0.00696066	      0.01271361	     -0.18224492	      0.00007797	     -0.01029449	      0.00356637	     -0.00075041	      0.00020071	      0.00008028	      0.00040142	      0.00025691	      0.00077072	      0.00043353	     -0.00001038	     -0.00010957	     -0.00013148	      0.00244614	      0.00858222	      0.00597024	     -0.00800178	      0.01932035	     -0.01832531	      0.00244614	      0.00858222	      0.00597024	      0.00053898	      0.01791071	     -0.00941142	      0.00388924	      0.00477246	      0.01582237	      0.00000000	      0.00744615	      0.00000000	     -0.00700674	     -0.03238025	     -0.00613776	      0.02139770	     -0.00097658	     -0.01078067	     -0.00087066	      0.01459391	     -0.00597024	      0.00240468	      0.02106167	     -0.01741319	     -0.00584586	      0.01264530	     -0.00534834	     -0.01218924	      0.02670023	     -0.02989265	     -0.02288591	      0.01413786	     -0.00717258	     -0.01517435	      0.03084623	     -0.03735545
      1.36666667	     -0.31465457	      0.13327283	     -0.13327283	      0.31465457	     -0.06371115	      0.51489111	      0.23144001	     -0.23144001	     -0.51489111	      0.06371115	    101.48374977	     74.49726701	     -1.77122557	    -37.19642119	     31.45066530	     86.01776196	      0.35949412	     -0.29221838	      0.38210354	     -0.14610919	     40.00280510	    -23.52950912	      4.59092937	      3.47284460	     98.50533342	     12.02248210	     69.31136780	     70.08424371	     96.50327008	     -1.97180821	     75.38064057	     57.50366201	     90.14593757	    -13.58315966	     92.29236802	     44.62503173	     92.85535949	    -14.17421492	     99.93556813	      5.34791028	      0.00094029	     -0.03120473	     -0.00488063	      0.01423807	     -0.01874373	     -0.00107300	      0.00119426	     -0.06900973	     -0.00697919	      0.01274004	     -0.18223713	      0.00008429	     -0.01032211	      0.00357899	     -0.00075779	      0.00022748	      0.00009099	      0.00045497	      0.00029118	      0.00087354	      0.00049137	     -0.00001047	     -0.00011106	     -0.00013327	      0.00244186	      0.00856719	      0.00595979	     -0.00798777	      0.01928653	     -0.01829323	      0.00244186	      0.00856719	      0.00595979	      0.00053804	      0.01787936	     -0.00939494	      0.00388422	      0.00476411	      0.01580977	      0.00000000	      0.00741993	      0.00000000	     -0.00699447	     -0.03232356	     -0.00611598	      0.02172193	     -0.00100944	     -0.01129507	     -0.00086914	      0.01456837	     -0.00595979	      0.00240047	      0.02102480	     -0.01738271	     -0.00583562	      0.01262316	     -0.00533898	     -0.01216790	      0.02665349	     -0.02984032	     -0.02284585	      0.01411311	     -0.00716002	     -0.01514779	      0.03079223	     -0.03729005
      1.40000000	     -0.31477194	      0.13332254	     -0.13332254	      0.31477194	     -0.06373492	      0.51508317	      0.23152634	     -0.23152634	     -0.51508317	      0.06373492	    101.50323096	     74.52505531	     -1.77156558	    -37.19144784	     31.46502788	     86.01986520	      0.35954050	     -0.29229132	      0.38213919	     -0.14614566	     40.00218910	    -23.52997080	      4.59031384	      3.47264345	     98.49953856	     12.02238642	     69.30969981	     70.08361898	     96.49605020	     -1.97159571	     75.37820119	     57.50301752	     90.14303021	    -13.58284987	     92.29135602	     44.62478989	     92.85498324	    -14.17397254	     99.93499242	      5.34772928	      0.00094077	     -0.03120637	     -0.00488089	      0.01423785	     -0.01874763	     -0.00107264	      0.00119410	     -0.06900983	     -0.00697936	      0.01274028	     -0.18223706	      0.00008434	     -0.01032236	      0.00357910	     -0.00075786	      0.00022751	      0.00009100	      0.00045502	      0.00029121	      0.00087363	      0.00049142	     -0.00001047	     -0.00011107	     -0.00013328	      0.00244277	      0.00857039	      0.00596201	     -0.00799075	      0.01929373	     -0.01830006	      0.00244277	      0.00857039	      0.00596201	      0.00053824	      0.01788603	     -0.00939845	      0.00388529	      0.00476588	      0.01581246	      0.00000000	      0.00742551	      0.00000000	     -0.00699708	     -0.03233562	     -0.00612061	      0.02172010	     -0.00100926	     -0.01129233	     -0.00086946	      0.01457380	     -0.00596201	      0.00240136	      0.02103264	     -0.01738919	     -0.00583780	      0.01262787	     -0.00534097	     -0.01217244	      0.02666343	     -0.02985145	     -0.02285437	      0.01411837	     -0.00716269	     -0.01515344	      0.03080372	     -0.03730396
      1.43333333	     -0.31436034	      0.13314820	     -0.13314820	      0.31436034	     -0.06365157	      0.51440964	      0.23122359	     -0.23122359	     -0.51440964	      0.06365157	    101.63969404	     74.42760503	     -1.77394731	    -37.67645172	     31.39954267	     86.03598891	      0.34711113	     -0.37071306	      0.37246010	     -0.18535653	     39.61606118	    -23.59704678	      2.88690752	      3.80269475	     95.61333358	     12.00745094	     66.40652878	     64.87384040	     94.40478034	     -1.52802186	     71.26901539	     53.78955598	     88.08986802	    -13.57302736	     88.89140425	     45.57558246	     91.83362028	    -14.17505219	     95.43679245	      5.31254645	      0.00093860	     -0.03119887	     -0.00487968	      0.01423624	     -0.01872984	     -0.00106991	      0.00119291	     -0.06901060	     -0.00698066	      0.01274213	     -0.18223652	      0.00008477	     -0.01032429	      0.00357998	     -0.00075836	      0.00026425	      0.00010570	      0.00052851	      0.00033824	      0.00101473	      0.00057079	     -0.00001092	     -0.00011850	     -0.00014220	      0.00243957	      0.00855918	      0.00595421	     -0.00798030	      0.01926850	     -0.01827613	      0.00243957	      0.00855918	      0.00595421	      0.00053753	      0.01786264	     -0.00938616	      0.00388154	      0.00475965	      0.01580304	      0.00000000	      0.00740597	      0.00000000	     -0.00698793	     -0.03229334	     -0.00610439	      0.02188699	     -0.00102669	     -0.01156737	     -0.00086832	      0.01455474	     -0.00595421	      0.00239822	      0.02100514	     -0.01736646	     -0.00583017	      0.01261135	     -0.00533398	     -0.01215652	      0.02662857	     -0.02981242	     -0.02282448	      0.01409991	     -0.00715333	     -0.01513363	      0.03076344	     -0.03725518
      1.46666667	     -0.31446186	      0.13319120	     -0.13319120	      0.31446186	     -0.06367213	      0.51457576	      0.23129826	     -0.23129826	     -0.51457576	      0.06367213	    101.55441530	     74.45164060	     -1.77245892	    -37.32777532	     31.48409586	     85.85639555	      0.35161564	     -0.37895660	      0.37599778	     -0.18947830	     39.20899345	    -23.67199576	      1.94360770	      3.20348587	     92.36055698	     11.96037432	     63.91643188	     64.10117601	     91.45616504	     -0.98637809	     68.63476257	     52.84098238	     84.81166063	    -13.50159244	     86.48299913	     44.85600634	     88.26010203	    -14.17133421	     93.29447835	      5.28459524	      0.00094140	     -0.03120856	     -0.00488124	      0.01425473	     -0.01875281	     -0.00110062	      0.00120618	     -0.06900202	     -0.00696619	      0.01272151	     -0.18224260	      0.00007985	     -0.01030274	      0.00357014	     -0.00075261	      0.00026746	      0.00010699	      0.00053493	      0.00034235	      0.00102706	      0.00057772	     -0.00001133	     -0.00012615	     -0.00015137	      0.00244036	      0.00856195	      0.00595614	     -0.00798288	      0.01927472	     -0.01828203	      0.00244036	      0.00856195	      0.00595614	      0.00053771	      0.01786841	     -0.00938919	      0.00388247	      0.00476119	      0.01580537	      0.00000000	      0.00741079	      0.00000000	     -0.00699019	     -0.03230377	     -0.00610839	      0.02176730	     -0.00101415	     -0.01136944	     -0.00086860	      0.01455944	     -0.00595614	      0.00239900	      0.02101193	     -0.01737206	     -0.00583205	      0.01261543	     -0.00533571	     -0.01216044	      0.02663717	     -0.02982204	     -0.02283186	      0.01410446	     -0.00715564	     -0.01513851	      0.03077337	     -0.03726721
      1.50000000	     -0.31442367	      0.13317503	     -0.13317503	      0.31442367	     -0.06366440	      0.51451326	      0.23127017	     -0.23127017	     -0.51451326	      0.06366440	    101.55216921	     74.44259821	     -1.77241972	    -37.23958526	     31.52153489	     85.76277779	      0.35295339	     -0.39010701	      0.37704120	     -0.19505350	     38.53682512	    -23.71923585	      0.84558817	      2.59784494	     87.90789268	     11.89280648	     60.82644043	     62.97709799	     87.49013077	     -0.34671550	     65.29673143	     51.57105869	     80.25413992	    -13.38970983	     83.58627774	     44.16691278	     83.37786259	    -14.17204452	     90.07707925	      5.27496150	      0.00094263	     -0.03121285	     -0.00488194	      0.01426437	     -0.01876298	     -0.00111663	      0.00121310	     -0.06899755	     -0.00695865	      0.01271076	     -0.18224576	      0.00007728	     -0.01029151	      0.00356500	     -0.00074961	      0.00027169	      0.00010868	      0.00054338	      0.00034776	      0.00104329	      0.00058685	     -0.00001191	     -0.00013838	     -0.00016605	      0.00244007	      0.00856091	      0.00595541	     -0.00798191	      0.01927238	     -0.01827981	      0.00244007	      0.00856091	      0.00595541	      0.00053764	      0.01786624	     -0.00938805	      0.00388212	      0.00476061	      0.01580449	      0.00000000	      0.00740898	      0.00000000	     -0.00698934	     -0.03229984	     -0.00610688	      0.02173683	     -0.00101099	     -0.01131951	     -0.00086850	      0.01455768	     -0.00595541	      0.00239871	      0.02100937	     -0.01736995	     -0.00583134	      0.01261390	     -0.00533506	     -0.01215897	      0.02663393	     -0.02981842	     -0.02282908	      0.01410275	     -0.00715477	     -0.01513667	      0.03076963	     -0.03726269
